<svg width="200" height="200" viewBox="0 0 200 200" fill="none" xmlns="http://www.w3.org/2000/svg">
<path d="M103 55C103 53.8954 102.105 53 101 53C99.8954 53 99 53.8954 99 55L103 55ZM101 102.69L102.392 104.126C102.781 103.749 103 103.231 103 102.69L101 102.69ZM76.6075 123.564C75.8146 124.333 75.7953 125.6 76.5644 126.393C77.3335 127.185 78.5996 127.205 79.3925 126.436L76.6075 123.564ZM99 55L99 102.69L103 102.69L103 55L99 55ZM99.6075 101.255L76.6075 123.564L79.3925 126.436L102.392 104.126L99.6075 101.255Z" fill="#175DDC"/>
<mask id="path-2-inside-1_2401_3728" fill="white">
<rect x="85.1714" y="6" width="31.2537" height="14.0642" rx="2"/>
</mask>
<rect x="85.1714" y="6" width="31.2537" height="14.0642" rx="2" stroke="#175DDC" stroke-width="8" mask="url(#path-2-inside-1_2401_3728)"/>
<rect x="108" y="18" width="9" height="14" transform="rotate(90 108 18)" stroke="#175DDC" stroke-width="2"/>
<path d="M153.394 32.1945L171.177 49.9781C171.568 50.3686 171.568 51.0018 171.177 51.3923L162.961 59.6087C157.249 51.4374 152.489 46.7014 143.74 40.4342L151.979 32.1945C152.37 31.8039 153.003 31.8039 153.394 32.1945Z" stroke="#175DDC" stroke-width="4"/>
<path d="M158.864 123.672C146.778 156.077 110.711 172.549 78.3061 160.463C75.5316 159.429 72.8739 158.218 70.3409 156.849M41.5146 79.9052C53.6004 47.5 89.6676 31.0279 122.073 43.1137C127.485 45.1324 132.454 47.8202 136.918 51.0482" stroke="#175DDC" stroke-width="2" stroke-linecap="round" stroke-linejoin="round"/>
<path d="M31.8815 129.631C30.8548 129.224 29.6922 129.726 29.2849 130.753L22.6461 147.484C22.2387 148.51 22.7407 149.673 23.7674 150.08C24.7941 150.488 25.9567 149.986 26.3641 148.959L32.2652 134.087L47.1372 139.988C48.1639 140.395 49.3265 139.893 49.7339 138.867C50.1413 137.84 49.6392 136.677 48.6125 136.27L31.8815 129.631ZM23.4949 110.589C23.6227 111.687 24.6157 112.472 25.7129 112.345C26.81 112.217 27.5959 111.224 27.4681 110.127L23.4949 110.589ZM80.8244 31.6737C119.564 21.2935 159.383 44.2832 169.763 83.0226L173.627 81.9873C162.675 41.1141 120.662 16.8581 79.7892 27.81L80.8244 31.6737ZM169.763 83.0226C180.144 121.762 157.154 161.581 118.414 171.961L119.45 175.825C160.323 164.873 184.579 122.861 173.627 81.9873L169.763 83.0226ZM118.414 171.961C83.1699 181.405 47.028 163.227 32.98 130.697L29.3078 132.283C44.1311 166.609 82.2603 185.79 119.45 175.825L118.414 171.961ZM27.4681 110.127C23.3691 74.9309 45.5799 41.1175 80.8244 31.6737L79.7892 27.81C42.5998 37.7749 19.1697 73.4512 23.4949 110.589L27.4681 110.127Z" fill="#175DDC"/>
<path d="M189 155C189 174.907 173.081 191 153.5 191C133.919 191 118 174.907 118 155C118 135.093 133.919 119 153.5 119C173.081 119 189 135.093 189 155Z" fill="#E8F0FF" stroke="#175DDC" stroke-width="4"/>
<path d="M134 155.703L148.83 173L175 141" stroke="#175DDC" stroke-width="4" stroke-linecap="round" stroke-linejoin="round"/>
</svg>
